<?xml version="1.0" encoding="UTF-8" standalone="no"?>
<svg
   xmlns:dc="http://purl.org/dc/elements/1.1/"
   xmlns:cc="http://creativecommons.org/ns#"
   xmlns:rdf="http://www.w3.org/1999/02/22-rdf-syntax-ns#"
   xmlns:svg="http://www.w3.org/2000/svg"
   xmlns="http://www.w3.org/2000/svg"
   xmlns:sodipodi="http://sodipodi.sourceforge.net/DTD/sodipodi-0.dtd"
   xmlns:inkscape="http://www.inkscape.org/namespaces/inkscape"
   width="264.58334mm"
   height="68.580551mm"
   viewBox="0 0 264.58334 68.580551"
   version="1.1"
   id="svg2046"
   inkscape:version="1.0.1 (3bc2e813f5, 2020-09-07)"
   sodipodi:docname="text_horizontal_white_and_blue.svg">
  <defs
     id="defs2040">
    <clipPath
       clipPathUnits="userSpaceOnUse"
       id="clipPath260">
      <path
         d="M 0,0 H 792 V 612 H 0 Z"
         id="path258" />
    </clipPath>
    <clipPath
       clipPathUnits="userSpaceOnUse"
       id="clipPath288">
      <path
         d="M 0,0 H 792 V 612 H 0 Z"
         id="path286" />
    </clipPath>
    <clipPath
       clipPathUnits="userSpaceOnUse"
       id="clipPath312">
      <path
         d="M 0,0 H 792 V 612 H 0 Z"
         id="path310" />
    </clipPath>
    <clipPath
       clipPathUnits="userSpaceOnUse"
       id="clipPath336">
      <path
         d="M 0,0 H 792 V 612 H 0 Z"
         id="path334" />
    </clipPath>
    <clipPath
       clipPathUnits="userSpaceOnUse"
       id="clipPath356">
      <path
         d="M 0,0 H 792 V 612 H 0 Z"
         id="path354" />
    </clipPath>
    <clipPath
       clipPathUnits="userSpaceOnUse"
       id="clipPath376">
      <path
         d="M 0,0 H 792 V 612 H 0 Z"
         id="path374" />
    </clipPath>
    <clipPath
       clipPathUnits="userSpaceOnUse"
       id="clipPath396">
      <path
         d="M 0,0 H 792 V 612 H 0 Z"
         id="path394" />
    </clipPath>
  </defs>
  <sodipodi:namedview
     id="base"
     pagecolor="#ffffff"
     bordercolor="#666666"
     borderopacity="1.0"
     inkscape:pageopacity="0.0"
     inkscape:pageshadow="2"
     inkscape:zoom="0.35"
     inkscape:cx="158.11598"
     inkscape:cy="242.19405"
     inkscape:document-units="mm"
     inkscape:current-layer="layer1"
     inkscape:document-rotation="0"
     showgrid="false"
     inkscape:window-width="1533"
     inkscape:window-height="991"
     inkscape:window-x="26"
     inkscape:window-y="23"
     inkscape:window-maximized="0" />
  <metadata
     id="metadata2043">
    <rdf:RDF>
      <cc:Work
         rdf:about="">
        <dc:format>image/svg+xml</dc:format>
        <dc:type
           rdf:resource="http://purl.org/dc/dcmitype/StillImage" />
        <dc:title></dc:title>
      </cc:Work>
    </rdf:RDF>
  </metadata>
  <g
     inkscape:label="Layer 1"
     inkscape:groupmode="layer"
     id="layer1"
     transform="translate(-496.89933,-84.086158)">
    <g
       id="g254"
       transform="matrix(1.638256,0,0,-1.638256,-351.47137,796.66395)">
      <g
         id="g256"
         clip-path="url(#clipPath260)">
        <g
           id="g262"
           transform="translate(545.9739,417.1989)">
          <path
             d="m 0,0 c 0,-8.058 -6.17,-14.394 -14.062,-14.394 -7.892,0 -14.062,6.336 -14.062,14.394 0,8.094 6.17,14.54 14.062,14.54 C -6.17,14.54 0,8.094 0,0 m -4.914,0 c 0,5.604 -4.018,9.852 -9.148,9.852 -5.129,0 -9.147,-4.248 -9.147,-9.852 0,-5.603 4.018,-9.743 9.147,-9.743 5.13,0 9.148,4.139 9.148,9.743"
             style="fill:#ffffff;fill-opacity:1;fill-rule:nonzero;stroke:none"
             id="path264" />
        </g>
        <g
           id="g266"
           transform="translate(567.1962,412.474)">
          <path
             d="m 0,0 c 0,-5.75 -4.233,-9.67 -8.789,-9.67 -2.439,0 -4.412,0.735 -5.919,1.978 v -11.683 h -4.735 V 9.157 h 4.736 V 7.692 c 1.507,1.282 3.48,2.014 5.919,2.014 C -4.233,9.706 0,5.75 0,0 m -4.592,0 c 0,3.37 -2.152,5.494 -5.022,5.494 -2.547,0 -5.094,-2.124 -5.094,-5.494 0,-3.37 2.547,-5.455 5.094,-5.455 2.87,-0.003 5.022,2.085 5.022,5.455"
             style="fill:#ffffff;fill-opacity:1;fill-rule:nonzero;stroke:none"
             id="path268" />
        </g>
        <g
           id="g270"
           transform="translate(587.024,411.1926)">
          <path
             d="m 0,0 h -13.632 c 0.467,-2.637 2.296,-4.249 4.485,-4.249 1.398,0 3.156,0.183 4.447,2.417 l 4.234,-0.915 c -1.579,-3.809 -4.771,-5.641 -8.682,-5.641 -5.059,0 -9.184,3.92 -9.184,9.67 0,5.75 4.125,9.704 9.255,9.704 4.771,0 8.896,-3.773 9.076,-9.34 z m -13.489,3.406 h 8.648 c -0.61,2.344 -2.332,3.37 -4.233,3.37 -1.796,-10e-4 -3.84,-1.099 -4.415,-3.37"
             style="fill:#ffffff;fill-opacity:1;fill-rule:nonzero;stroke:none"
             id="path272" />
        </g>
        <g
           id="g274"
           transform="translate(606.3445,414.4886)">
          <path
             d="m 0,0 v -11.134 h -4.735 v 10.109 c 0,2.563 -1.435,4.284 -3.623,4.284 -2.69,0 -4.448,-1.831 -4.448,-6.3 v -8.093 h -4.735 V 7.142 h 4.733 V 5.494 c 1.399,1.428 3.264,2.197 5.632,2.197 C -2.87,7.691 0,4.541 0,0"
             style="fill:#ffffff;fill-opacity:1;fill-rule:nonzero;stroke:none"
             id="path276" />
        </g>
      </g>
    </g>
    <g
       id="g278"
       transform="matrix(1.638256,0,0,-1.638256,689.58446,135.86655)">
      <path
         d="M 0,0 H -3.802 L -10.474,18.057 -17.182,0 h -3.767 l -8.933,27.836 h 5.093 l 5.992,-18.387 6.851,18.387 H -9.04 L -2.188,9.449 3.802,27.836 H 8.93 Z"
         style="fill:#ffffff;fill-opacity:1;fill-rule:nonzero;stroke:none"
         id="path280" />
    </g>
    <g
       id="g282"
       transform="matrix(1.638256,0,0,-1.638256,-351.47137,796.66395)">
      <g
         id="g284"
         clip-path="url(#clipPath288)">
        <g
           id="g290"
           transform="translate(656.0491,421.7402)">
          <path
             d="m 0,0 -0.251,-4.651 h -1.041 c -4.376,0 -6.385,-2.747 -6.385,-7.838 v -5.897 h -4.735 V -0.11 h 4.735 v -3.186 c 1.327,2.124 3.408,3.443 6.422,3.443 0.466,0 0.824,0 1.255,-0.147"
             style="fill:#ffffff;fill-opacity:1;fill-rule:nonzero;stroke:none"
             id="path292" />
        </g>
        <g
           id="g294"
           transform="translate(666.1192,410.0933)">
          <path
             d="m 0,0 c 0,-1.794 0.825,-2.784 2.26,-2.784 0.825,0 2.045,0.367 2.98,0.879 L 6.604,-5.933 C 4.738,-6.959 3.447,-7.289 1.94,-7.289 c -4.269,0 -6.672,2.491 -6.672,6.924 v 7.947 h -3.84 v 3.955 h 3.839 v 6.63 l 4.735,1.465 V 11.537 H 6.926 V 7.582 H 0 Z"
             style="fill:#ffffff;fill-opacity:1;fill-rule:nonzero;stroke:none"
             id="path296" />
        </g>
      </g>
    </g>
    <g
       id="g298"
       transform="matrix(1.638256,0,0,-1.638256,571.2626,152.49862)">
      <path
         d="m 0,0 h -1.066 l -1,2.805 L -3.073,0 h -1.06 l -1.634,5.174 h 1.361 l 0.847,-2.791 1.06,2.791 h 0.867 l 1.053,-2.791 0.854,2.791 h 1.36 z"
         style="fill:#00ace2;fill-opacity:1;fill-rule:nonzero;stroke:none"
         id="path300" />
    </g>
    <g
       id="g302"
       transform="matrix(1.638256,0,0,-1.638256,582.25479,150.65836)">
      <path
         d="M 0,0 H 1.047 V -1.123 H -2.327 V 0 h 1.047 v 2.921 h -1.047 v 1.13 H 1.047 V 2.921 H 0 Z"
         style="fill:#00ace2;fill-opacity:1;fill-rule:nonzero;stroke:none"
         id="path304" />
    </g>
    <g
       id="g306"
       transform="matrix(1.638256,0,0,-1.638256,-351.47137,796.66395)">
      <g
         id="g308"
         clip-path="url(#clipPath312)">
        <g
           id="g314"
           transform="translate(577.6125,393.2019)">
          <path
             d="M 0,0 -0.934,1.123 H -1.933 V 0 h -1.28 v 5.174 h 2.36 c 1.334,0 2.141,-0.803 2.141,-2.002 0,-0.769 -0.34,-1.389 -0.927,-1.736 L 1.608,0 Z m -0.9,2.247 c 0.533,0 0.973,0.368 0.973,0.925 0,0.545 -0.44,0.881 -0.973,0.881 H -1.933 V 2.249 Z"
             style="fill:#00ace2;fill-opacity:1;fill-rule:nonzero;stroke:none"
             id="path316" />
        </g>
      </g>
    </g>
    <g
       id="g318"
       transform="matrix(1.638256,0,0,-1.638256,608.10418,152.49862)">
      <path
         d="M 0,0 H -3.867 V 5.174 H -0.04 V 4.051 H -2.587 V 3.166 H -0.08 V 2.042 H -2.587 V 1.123 h 2.588 z"
         style="fill:#00ace2;fill-opacity:1;fill-rule:nonzero;stroke:none"
         id="path320" />
    </g>
    <g
       id="g322"
       transform="matrix(1.638256,0,0,-1.638256,619.80312,152.49862)">
      <path
         d="m 0,0 h -3.74 v 5.174 h 1.279 V 1.123 H 0 Z"
         style="fill:#00ace2;fill-opacity:1;fill-rule:nonzero;stroke:none"
         id="path324" />
    </g>
    <g
       id="g326"
       transform="matrix(1.638256,0,0,-1.638256,631.67983,152.49862)">
      <path
         d="M 0,0 H -3.867 V 5.174 H -0.04 V 4.051 H -2.588 V 3.166 H -0.08 V 2.042 H -2.588 V 1.123 H 0 Z"
         style="fill:#00ace2;fill-opacity:1;fill-rule:nonzero;stroke:none"
         id="path328" />
    </g>
    <g
       id="g330"
       transform="matrix(1.638256,0,0,-1.638256,-351.47137,796.66395)">
      <g
         id="g332"
         clip-path="url(#clipPath336)">
        <g
           id="g338"
           transform="translate(607.5884,396.9873)">
          <path
             d="m 0,0 -1.253,-0.259 c -0.107,0.524 -0.454,0.673 -0.754,0.673 -0.3,0 -0.547,-0.155 -0.547,-0.442 0,-0.204 0.107,-0.334 0.327,-0.402 l 0.987,-0.32 c 0.833,-0.278 1.287,-0.673 1.287,-1.484 0,-1.164 -1,-1.654 -1.994,-1.654 -1.1,0 -1.994,0.592 -2.121,1.579 l 1.314,0.273 c 0.107,-0.511 0.406,-0.729 0.847,-0.729 0.373,0 0.6,0.177 0.6,0.449 0,0.205 -0.107,0.348 -0.387,0.423 l -0.94,0.278 c -0.767,0.225 -1.287,0.627 -1.287,1.465 0,1.055 0.812,1.633 1.921,1.633 C -0.947,1.484 -0.167,0.967 0,0"
             style="fill:#00ace2;fill-opacity:1;fill-rule:nonzero;stroke:none"
             id="path340" />
        </g>
        <g
           id="g342"
           transform="translate(614.288,396.9873)">
          <path
             d="m 0,0 -1.254,-0.259 c -0.107,0.524 -0.453,0.673 -0.753,0.673 -0.3,0 -0.547,-0.155 -0.547,-0.442 0,-0.204 0.106,-0.334 0.327,-0.402 l 0.987,-0.32 c 0.833,-0.278 1.287,-0.673 1.287,-1.484 0,-1.164 -1.001,-1.654 -1.994,-1.654 -1.1,0 -1.994,0.592 -2.121,1.579 l 1.314,0.273 c 0.107,-0.511 0.406,-0.729 0.847,-0.729 0.373,0 0.6,0.177 0.6,0.449 0,0.205 -0.107,0.348 -0.387,0.423 l -0.94,0.28 c -0.767,0.224 -1.287,0.626 -1.287,1.464 0,1.055 0.812,1.633 1.921,1.633 1.053,0 1.833,-0.517 2,-1.484"
             style="fill:#00ace2;fill-opacity:1;fill-rule:nonzero;stroke:none"
             id="path344" />
        </g>
      </g>
    </g>
    <g
       id="g346"
       transform="matrix(1.638256,0,0,-1.638256,670.07777,147.31223)">
      <path
         d="M 0,0 H 2.38 V -1.123 H 0 V -3.166 H -1.28 V 2.008 H 2.554 V 0.885 H 0 Z"
         style="fill:#00ace2;fill-opacity:1;fill-rule:nonzero;stroke:none"
         id="path348" />
    </g>
    <g
       id="g350"
       transform="matrix(1.638256,0,0,-1.638256,-351.47137,796.66395)">
      <g
         id="g352"
         clip-path="url(#clipPath356)">
        <g
           id="g358"
           transform="translate(632.7272,393.2019)">
          <path
             d="m 0,0 -0.933,1.123 h -1 V 0 h -1.281 v 5.174 h 2.36 C 0.48,5.174 1.287,4.371 1.287,3.172 1.287,2.403 0.947,1.783 0.36,1.436 L 1.607,0 Z m -0.9,2.247 c 0.534,0 0.974,0.368 0.974,0.925 0,0.545 -0.44,0.881 -0.974,0.881 H -1.933 V 2.249 Z"
             style="fill:#00ace2;fill-opacity:1;fill-rule:nonzero;stroke:none"
             id="path360" />
        </g>
      </g>
    </g>
    <g
       id="g362"
       transform="matrix(1.638256,0,0,-1.638256,698.39713,152.49862)">
      <path
         d="M 0,0 H -3.868 V 5.174 H -0.04 V 4.051 H -2.588 V 3.166 H -0.08 V 2.042 H -2.588 V 1.123 H 0 Z"
         style="fill:#00ace2;fill-opacity:1;fill-rule:nonzero;stroke:none"
         id="path364" />
    </g>
    <g
       id="g366"
       transform="matrix(1.638256,0,0,-1.638256,710.30281,152.49862)">
      <path
         d="M 0,0 H -3.867 V 5.174 H -0.04 V 4.051 H -2.587 V 3.166 H -0.08 V 2.042 H -2.587 V 1.123 h 2.588 z"
         style="fill:#00ace2;fill-opacity:1;fill-rule:nonzero;stroke:none"
         id="path368" />
    </g>
    <g
       id="g370"
       transform="matrix(1.638256,0,0,-1.638256,-351.47137,796.66395)">
      <g
         id="g372"
         clip-path="url(#clipPath376)">
        <g
           id="g378"
           transform="translate(653.7738,398.3759)">
          <path
             d="M 0,0 C 1.613,0 2.68,-1.036 2.68,-2.587 2.68,-4.138 1.615,-5.174 0,-5.174 H -2.261 V 0 Z m -0.014,-4.051 c 0.874,0 1.407,0.586 1.407,1.464 0,0.878 -0.533,1.464 -1.407,1.464 h -0.964 v -2.928 z"
             style="fill:#00ace2;fill-opacity:1;fill-rule:nonzero;stroke:none"
             id="path380" />
        </g>
        <g
           id="g382"
           transform="translate(664.5184,395.7821)">
          <path
             d="m 0,0 c 0,-1.511 -1.213,-2.682 -2.707,-2.682 -1.494,0 -2.714,1.171 -2.714,2.682 0,1.511 1.214,2.689 2.714,2.689 C -1.207,2.689 0,1.505 0,0 m -1.287,0 c 0,0.851 -0.627,1.511 -1.421,1.511 -0.794,0 -1.421,-0.66 -1.421,-1.511 0,-0.851 0.627,-1.511 1.421,-1.511 0.794,0 1.421,0.653 1.421,1.511"
             style="fill:#00ace2;fill-opacity:1;fill-rule:nonzero;stroke:none"
             id="path384" />
        </g>
      </g>
    </g>
    <g
       id="g386"
       transform="matrix(1.638256,0,0,-1.638256,751.14507,152.49862)">
      <path
         d="M 0,0 H -1.253 V 2.457 L -2.747,0.359 h -0.387 l -1.494,2.096 v -2.457 h -1.254 v 5.174 h 0.821 l 2.12,-3.043 2.121,3.043 H 0 Z"
         style="fill:#00ace2;fill-opacity:1;fill-rule:nonzero;stroke:none"
         id="path388" />
    </g>
    <g
       id="g390"
       transform="matrix(1.638256,0,0,-1.638256,-351.47137,796.66395)">
      <g
         id="g392"
         clip-path="url(#clipPath396)">
        <g
           id="g398"
           transform="translate(677.3472,430.1957)">
          <path
             d="M 0,0 -1.32,1.462 H -1.864 V 0 h -0.607 v 3.462 h 1.267 c 0.711,0 1.141,-0.415 1.141,-0.998 C -0.052,2.066 -0.288,1.705 -0.651,1.562 L 0.759,0 Z m -1.204,2.022 c 0.355,0 0.54,0.192 0.54,0.442 0,0.25 -0.187,0.435 -0.54,0.435 h -0.66 V 2.021 Z"
             style="fill:#ffffff;fill-opacity:1;fill-rule:nonzero;stroke:none"
             id="path400" />
        </g>
        <g
           id="g402"
           transform="translate(676.199,428.5172)">
          <path
             d="M 0,0 C -1.743,0 -3.156,1.442 -3.156,3.221 -3.157,5 -1.744,6.443 -0.001,6.444 1.741,6.444 3.155,5.002 3.155,3.223 V 3.222 C 3.153,1.444 1.742,0.002 0,0 m 0,5.987 c -1.496,0 -2.708,-1.238 -2.708,-2.765 0,-1.527 1.212,-2.765 2.708,-2.765 1.496,0 2.708,1.238 2.708,2.765 C 2.707,4.749 1.495,5.986 0,5.988 Z"
             style="fill:#ffffff;fill-opacity:1;fill-rule:nonzero;stroke:none"
             id="path404" />
        </g>
      </g>
    </g>
  </g>
</svg>
